<?xml version="1.0" standalone="no"?>
<!DOCTYPE svg PUBLIC "-//W3C//DTD SVG 20010904//EN"
 "http://www.w3.org/TR/2001/REC-SVG-20010904/DTD/svg10.dtd">
<svg version="1.0" xmlns="http://www.w3.org/2000/svg"
 width="1112.000000pt" height="482.000000pt" viewBox="0 0 1112.000000 482.000000"
 preserveAspectRatio="xMidYMid meet">
<metadata>
Created by potrace 1.16, written by Peter Selinger 2001-2019
</metadata>
<g transform="translate(0.000000,482.000000) scale(0.100000,-0.100000)"
fill="#000000" stroke="none">
<path d="M5935 4594 c-582 -105 -1032 -550 -1130 -1119 -22 -129 -22 -366 0
-490 50 -282 193 -547 404 -747 192 -183 419 -303 681 -359 140 -30 428 -33
563 -6 504 102 904 448 1061 918 54 161 69 279 63 493 -7 236 -38 367 -134
561 -197 396 -572 672 -1022 750 -107 19 -378 18 -486 -1z m383 -819 c188 -44
353 -191 419 -372 102 -281 -68 -601 -372 -699 -93 -31 -225 -37 -315 -15
-249 60 -450 300 -450 538 0 354 363 632 718 548z"/>
<path d="M9200 4593 c-47 -8 -130 -30 -186 -48 -462 -151 -803 -513 -920 -975
-35 -141 -45 -412 -20 -570 89 -561 531 -1009 1113 -1127 135 -27 423 -24 563
6 558 120 990 560 1085 1105 20 119 20 373 -1 497 -97 563 -556 1014 -1133
1113 -121 20 -383 20 -501 -1z m440 -833 c223 -76 382 -276 397 -500 18 -252
-183 -508 -447 -571 -70 -17 -200 -17 -270 0 -210 50 -386 225 -435 432 -42
180 12 349 159 494 87 86 166 133 274 160 83 21 239 14 322 -15z"/>
<path d="M2499 4570 c-161 -19 -239 -51 -291 -121 -34 -45 -118 -201 -330
-614 -508 -985 -825 -1543 -948 -1665 -61 -62 -170 -128 -300 -183 -88 -37
-346 -120 -412 -132 -47 -9 -49 -21 -5 -29 200 -37 374 -50 652 -50 307 0 388
8 542 55 186 58 234 107 390 394 85 157 123 238 353 740 238 521 514 1078 591
1194 124 188 275 318 433 372 44 16 82 33 84 39 4 12 -655 12 -759 0z"/>
<path d="M4250 4573 c-101 -10 -179 -26 -219 -44 -96 -42 -110 -65 -411 -649
-432 -837 -761 -1431 -908 -1635 -67 -93 -121 -137 -252 -204 -117 -60 -245
-108 -415 -156 -71 -20 -137 -39 -145 -42 -21 -8 28 -18 225 -44 227 -31 682
-34 839 -6 173 31 316 89 378 154 82 86 273 457 538 1043 135 296 210 454 442
926 92 188 185 324 297 434 108 106 175 150 286 187 41 14 75 29 75 34 0 8
-652 10 -730 2z"/>
<path d="M569 1309 c-171 -18 -316 -144 -370 -321 -17 -56 -20 -88 -17 -176 3
-95 7 -115 35 -175 136 -287 523 -354 749 -129 184 184 174 511 -22 692 -93
86 -225 124 -375 109z m183 -100 c86 -44 122 -172 115 -404 -6 -220 -42 -305
-144 -339 -113 -39 -230 2 -280 97 -23 45 -42 170 -43 277 0 170 31 288 90
345 57 55 179 66 262 24z"/>
<path d="M10640 1253 c1 -16 18 -161 38 -323 l37 -295 30 0 29 0 38 290 c20
160 37 305 37 323 l1 32 -105 0 -105 0 0 -27z"/>
<path d="M2380 891 c-24 -13 -46 -38 -71 -85 -42 -78 -75 -116 -101 -116 -28
0 -26 112 2 140 11 11 20 31 20 45 l0 25 -130 0 -130 0 0 -26 c0 -15 10 -34
23 -44 21 -18 22 -24 22 -190 0 -168 -1 -173 -22 -188 -13 -8 -23 -25 -23 -38
l0 -24 130 0 c130 0 130 0 130 23 0 13 -9 32 -20 42 -17 15 -20 31 -20 97 0
60 3 78 14 78 31 0 58 -37 76 -104 11 -38 27 -80 36 -93 22 -35 73 -53 149
-53 59 0 65 2 65 20 0 12 -11 31 -24 43 -13 12 -32 45 -41 74 -9 28 -26 64
-37 79 -23 29 -90 63 -125 64 l-22 0 22 23 c12 13 35 40 50 61 33 42 66 46 82
9 7 -16 18 -23 37 -23 l28 0 0 84 c0 78 -1 84 -22 90 -38 10 -62 7 -98 -13z"/>
<path d="M4190 820 l0 -90 29 0 c22 0 31 6 36 23 10 31 45 67 80 82 70 30 135
-21 135 -106 0 -57 -5 -59 -72 -29 -50 22 -82 17 -143 -20 -29 -18 -33 -25
-25 -40 8 -15 17 -18 40 -14 20 4 39 0 63 -15 45 -27 94 -27 124 1 l23 21 0
-21 c0 -48 -23 -122 -45 -146 -17 -18 -34 -26 -58 -26 -44 0 -57 15 -57 65 0
23 -6 49 -13 59 -17 24 -82 24 -108 0 -24 -21 -26 -85 -4 -118 26 -39 103 -66
187 -66 106 0 143 14 202 73 60 61 76 103 76 205 0 97 -35 164 -108 208 -70
42 -121 49 -204 28 -63 -17 -69 -17 -86 -1 -10 9 -31 17 -45 17 l-27 0 0 -90z"/>
<path d="M5600 901 c-136 -30 -207 -129 -198 -278 5 -86 20 -123 70 -172 51
-52 102 -71 189 -71 94 0 167 33 216 97 98 132 46 347 -99 407 -45 19 -131 27
-178 17z m128 -106 c10 -28 13 -81 10 -177 -3 -116 -6 -139 -22 -157 -22 -24
-73 -28 -100 -8 -36 26 -41 330 -7 371 10 12 27 16 60 14 44 -3 47 -5 59 -43z"/>
<path d="M7562 896 c-74 -19 -141 -63 -166 -111 -19 -37 -21 -59 -24 -300 -3
-221 -5 -262 -19 -277 -9 -10 -22 -18 -30 -18 -8 0 -13 -12 -13 -30 l0 -30
140 0 140 0 0 26 c0 16 -10 34 -25 46 -24 18 -25 25 -25 119 0 54 2 99 4 99 2
0 21 -7 42 -16 27 -11 61 -15 120 -12 73 3 87 7 126 33 120 85 139 296 36 402
-63 65 -199 96 -306 69z m147 -75 c43 -43 53 -240 16 -312 -30 -57 -105 -62
-157 -12 -28 27 -28 28 -28 156 l0 129 29 29 c24 24 38 29 75 29 32 0 52 -6
65 -19z"/>
<path d="M8257 896 c-70 -19 -127 -63 -156 -121 -35 -68 -37 -198 -4 -261 28
-53 91 -107 142 -122 49 -15 143 -15 192 0 51 15 114 69 142 122 31 58 31 193
0 251 -60 113 -190 167 -316 131z m141 -86 c9 -18 12 -68 10 -183 -3 -177 -7
-187 -74 -187 -66 0 -77 35 -72 232 4 160 9 170 77 166 37 -2 48 -8 59 -28z"/>
<path d="M8935 900 c-88 -22 -154 -77 -182 -148 -22 -58 -23 -181 -1 -232 41
-95 111 -140 221 -140 82 0 151 27 200 78 l27 29 -20 18 c-17 16 -24 17 -38 7
-100 -70 -178 -69 -208 3 -17 41 -19 182 -3 255 10 45 36 80 61 80 15 0 38
-33 38 -54 0 -13 9 -35 21 -50 29 -36 91 -37 115 -1 60 91 -90 192 -231 155z"/>
<path d="M10108 897 c-68 -20 -123 -60 -155 -114 -25 -43 -28 -57 -28 -138 0
-105 19 -151 85 -207 48 -42 98 -58 175 -58 84 0 133 18 187 70 130 126 89
366 -74 434 -53 23 -136 28 -190 13z m133 -74 c10 -11 15 -56 17 -150 6 -198
-6 -233 -73 -233 -67 0 -78 34 -73 232 2 96 7 140 17 151 18 23 94 23 112 0z"/>
<path d="M1250 875 c0 -13 11 -35 25 -49 22 -22 25 -33 25 -103 0 -91 20 -141
64 -162 24 -11 46 -12 122 -2 51 6 99 14 108 17 13 5 16 -2 16 -45 0 -43 -5
-56 -25 -75 -14 -13 -25 -33 -25 -45 0 -20 4 -21 135 -21 131 0 135 1 135 21
0 12 -11 32 -25 45 -25 23 -25 25 -25 188 0 136 3 167 16 180 8 9 20 16 25 16
5 0 9 14 9 30 l0 30 -135 0 -135 0 0 -25 c0 -13 11 -35 25 -49 22 -23 25 -33
25 -104 0 -89 -3 -92 -80 -92 -52 0 -60 13 -60 101 0 75 13 109 41 109 5 0 9
14 9 30 l0 30 -135 0 -135 0 0 -25z"/>
<path d="M2640 875 c0 -13 11 -35 25 -49 25 -25 25 -28 25 -186 0 -159 0 -161
-25 -184 -14 -13 -25 -33 -25 -45 0 -20 4 -21 135 -21 131 0 135 1 135 21 0
12 -11 30 -25 41 -14 11 -25 27 -25 37 0 10 33 55 73 101 l72 84 3 -84 c3 -86
-9 -134 -34 -144 -8 -3 -14 -17 -14 -31 l0 -25 130 0 c130 0 130 0 130 23 0
13 -9 32 -20 42 -19 17 -20 31 -20 191 0 163 1 175 20 186 12 8 20 24 20 40
l0 28 -130 0 -130 0 0 -26 c0 -14 9 -33 19 -42 40 -35 34 -53 -44 -137 l-74
-80 -1 97 c0 75 4 100 16 112 8 9 20 16 25 16 5 0 9 14 9 30 l0 30 -135 0
-135 0 0 -25z"/>
<path d="M4780 805 l0 -95 29 0 c24 0 29 5 35 31 7 37 57 89 85 89 20 0 21 -5
21 -175 0 -175 0 -176 -25 -199 -14 -13 -25 -33 -25 -45 0 -20 4 -21 130 -21
130 0 130 0 130 23 0 13 -9 32 -20 42 -19 17 -20 31 -20 197 0 117 4 178 10
178 39 0 100 -66 100 -109 0 -6 11 -11 25 -11 25 0 25 0 25 95 l0 95 -250 0
-250 0 0 -95z"/>
<path d="M6590 874 c0 -15 10 -34 23 -44 21 -18 22 -24 22 -190 0 -168 -1
-173 -22 -187 -13 -9 -23 -26 -23 -39 l0 -24 130 0 c130 0 130 0 130 23 0 13
-9 32 -20 42 -19 17 -20 31 -20 197 l0 178 76 0 76 0 -4 -174 c-3 -165 -4
-176 -25 -198 -13 -14 -23 -34 -23 -46 0 -21 3 -22 130 -22 l130 0 0 25 c0 14
-7 28 -15 31 -27 11 -37 75 -33 222 3 135 4 145 26 162 12 10 22 29 22 44 l0
26 -290 0 -290 0 0 -26z"/>
<path d="M9310 805 c0 -93 1 -95 23 -95 19 0 26 8 36 40 8 28 22 47 44 60 57
35 57 36 57 -155 0 -175 0 -176 -25 -199 -14 -13 -25 -33 -25 -45 0 -20 4 -21
135 -21 127 0 135 1 135 20 0 10 -11 30 -25 44 -25 25 -25 27 -25 201 0 115 4
175 10 175 41 0 100 -62 100 -105 0 -9 9 -15 25 -15 25 0 25 0 25 95 l0 95
-245 0 -245 0 0 -95z"/>
<path d="M3826 725 c-15 -11 -49 -15 -132 -15 l-113 0 -15 -55 c-31 -105 -31
-115 -5 -115 13 0 33 7 43 15 15 11 48 15 128 15 l107 0 21 68 c11 37 23 75
26 85 7 22 -32 23 -60 2z"/>
<path d="M10675 556 c-28 -29 -40 -66 -31 -102 12 -48 49 -74 105 -74 43 0 53
4 75 31 18 21 26 42 26 69 0 27 -8 48 -26 69 -22 27 -32 31 -75 31 -39 0 -55
-5 -74 -24z"/>
</g>
</svg>
